<svg width="72" height="57" viewBox="0 0 72 57" fill="none" xmlns="http://www.w3.org/2000/svg">
<path d="M69.5779 35.0391C66.7569 32.5966 66.1827 29.4173 67.0066 26.0311C67.431 24.2924 67.406 22.3881 68.8706 20.8647C69.8775 19.8215 68.829 18.5216 68.1133 17.5281C64.3519 12.2789 59.0011 10.0518 52.7599 10.5072C47.3591 10.8963 42.0249 12.1216 36.6408 12.8337C27.0543 14.117 22.8685 10.9542 18.9823 4.44662C20.1223 4.00781 21.2707 3.569 22.8186 2.97289C22.0363 2.62515 21.6868 2.37677 21.2957 2.30225C18.9823 1.83033 16.6689 1.28389 14.3305 0.985826C11.8756 0.671208 9.27923 0.811959 7.39853 2.51752C4.76889 4.91027 2.60526 7.76667 1.24883 11.1281C1.01582 11.6911 0.899321 12.3369 0.907643 12.9413C0.949251 15.2016 2.89652 16.4932 5.07679 15.7729C8.06427 14.7959 9.1544 15.3009 10.4276 18.1739C11.8506 21.378 13.3402 24.549 14.7798 27.7366C16.128 30.7089 18.1251 33.1596 20.6466 35.2295C21.0211 35.5358 21.4372 35.9912 21.5037 36.43C22.1362 41.0168 23.1181 45.587 22.4607 50.2483C22.3276 51.2005 22.0613 52.1278 21.82 53.0716C21.6618 53.113 21.5703 53.1379 21.5703 53.1379C21.5703 53.1379 21.0377 56.2426 20.9878 56.3254C20.9379 56.4082 26.0141 56.342 26.1722 56.3254C26.1722 56.3254 26.6132 53.6677 26.7963 52.6659C26.813 52.5831 26.8296 52.5086 26.8379 52.4258C27.4121 48.104 28.211 43.7987 29.1264 39.5348C29.5841 37.3987 31.1569 36.6701 33.3871 37.0344C39.6949 38.0693 45.8862 37.7795 51.8029 35.1467C53.0095 34.6085 53.9249 34.7576 55.0067 35.3288C56.5546 36.1485 58.0941 37.0758 59.7584 37.5394C62.2133 38.2184 63.5531 40.1226 65.1425 41.7619C65.492 42.118 65.6668 42.8217 65.6252 43.335C65.3755 46.3487 65.6668 49.2879 66.3575 52.2106C65.8665 52.3348 65.4837 52.7156 65.3838 53.2207C65.1591 54.4129 64.8096 56.2758 64.7764 56.3337C64.7264 56.4165 69.8026 56.3503 69.9607 56.3337C69.9607 56.3337 70.1854 54.9676 70.3851 53.8251C70.5016 53.5601 70.5765 53.2869 70.6015 53.0468C71.0342 48.6918 71.3338 44.3286 71.6667 39.9653C71.8248 37.9617 71.0758 36.3472 69.5696 35.0473L69.5779 35.0391Z" fill="#ECEFDF"/>
</svg>
