<svg width="62" height="22" viewBox="0 0 62 22" fill="none" xmlns="http://www.w3.org/2000/svg">
<path d="M42.4791 15.5343C42.4791 15.5343 42.4946 15.5188 42.4985 15.5149L42.483 15.5266L42.4752 15.5343H42.4791Z" fill="white"/>
<path d="M53.1338 19.8756C53.1416 19.8989 53.1454 19.9222 53.1532 19.9417L53.1144 19.7861C53.1222 19.8172 53.1299 19.8483 53.1338 19.8756Z" fill="white"/>
<path d="M41.0383 8.70352C41.0383 8.70352 40.9802 8.74242 40.9066 8.79688C40.9764 8.7502 41.0228 8.71519 41.0383 8.70352Z" fill="white"/>
<path d="M39.1018 17.8022C39.1018 17.8022 39.1057 17.7983 39.1096 17.7944V17.8022H39.1018Z" fill="white"/>
<path d="M57.3787 0.592894H57.5297C57.4832 0.589004 57.4368 0.589004 57.3864 0.592894H57.3787Z" fill="white"/>
<path d="M61.3485 2.63125C61.3485 2.63125 61.3485 2.6118 61.3485 2.60013C61.3485 2.55734 61.3524 2.51455 61.3485 2.47565C61.3485 2.47565 61.3446 2.46787 61.3408 2.46398V2.63514L61.3485 2.63125Z" fill="white"/>
<path d="M58.161 9.26367C58.1649 9.33369 58.1804 9.38037 58.1881 9.41149L58.1571 9.217C58.1571 9.217 58.1571 9.252 58.1571 9.26367H58.161Z" fill="white"/>
<path d="M40.5852 9.07696C40.5852 9.07696 40.5658 9.09251 40.5581 9.1003C40.5697 9.09251 40.5774 9.08474 40.5852 9.07696Z" fill="white"/>
<path d="M39.1018 17.8022V17.7944C39.1018 17.7944 39.0979 17.7983 39.0941 17.8022H39.1018Z" fill="white"/>
<path d="M42.4791 15.5343L42.4868 15.5266L42.5023 15.5149C42.5023 15.5149 42.4868 15.5304 42.483 15.5343H42.4791Z" fill="white"/>
<path d="M53.1338 19.8756C53.1261 19.8483 53.1183 19.8172 53.1144 19.7861L53.1532 19.9417C53.1454 19.9222 53.1416 19.8989 53.1338 19.8756Z" fill="white"/>
<path d="M56.271 1.00134C56.271 1.00134 56.2748 1.00134 56.2787 0.997453C56.2787 0.997453 56.2748 0.997453 56.271 1.00134Z" fill="white"/>
<path d="M57.3787 0.592894H57.3864C57.4329 0.589004 57.4832 0.589004 57.5297 0.592894H57.3787Z" fill="white"/>
<path d="M58.1881 9.40761C58.1804 9.38037 58.1649 9.3298 58.161 9.25978C58.161 9.24423 58.161 9.22867 58.161 9.21311L58.192 9.40761H58.1881Z" fill="white"/>
<path d="M61.3524 2.60013C61.3524 2.60013 61.3524 2.61958 61.3524 2.63125V2.46009C61.3524 2.46009 61.3563 2.47176 61.3601 2.47176C61.3601 2.51066 61.3601 2.55345 61.3601 2.59624L61.3524 2.60013Z" fill="white"/>
<path d="M33.6331 7.45094H33.637C33.637 7.45094 33.637 7.45094 33.6331 7.45094Z" fill="white"/>
<path d="M61.3253 1.90382L61.3369 1.87659C61.3369 1.87659 61.3485 1.83769 61.3563 1.82213C61.3679 1.78323 61.3756 1.74822 61.3834 1.70932C61.3989 1.63541 61.4066 1.5615 61.4105 1.49537C61.4105 1.42535 61.3989 1.35922 61.3756 1.29698C61.3524 1.23863 61.3098 1.18806 61.2633 1.16083C61.1704 1.10637 61.0813 1.11026 61.0271 1.11415C60.9728 1.11804 60.9418 1.12971 60.9418 1.1336C60.9418 1.12971 60.9031 1.12582 60.8412 1.13749C60.8102 1.14527 60.7676 1.15694 60.725 1.18028C60.7211 1.18028 60.7172 1.18806 60.7095 1.18806C60.6669 1.18806 60.6204 1.18806 60.5817 1.18806C60.4384 1.19195 60.1556 1.21918 59.8419 1.2892C59.6095 1.33977 59.412 1.4059 59.261 1.41368C59.1293 1.42146 59.0479 1.39812 59.0247 1.39812C58.9666 1.36311 58.9008 1.31254 58.862 1.23474C58.8698 1.22307 58.8736 1.20362 58.8775 1.1725C58.8775 1.12582 58.8698 1.06358 58.8349 1.00523C58.8001 0.942993 58.7536 0.900203 58.7149 0.880753C58.6761 0.857413 58.649 0.857413 58.6451 0.865193C58.6413 0.876863 58.6723 0.904093 58.711 0.946883C58.6568 0.907983 58.5909 0.880753 58.5251 0.845743C58.3275 0.748494 58.0913 0.631794 57.8047 0.561774C57.6614 0.526764 57.5065 0.511204 57.3438 0.522874C57.1811 0.534544 57.0223 0.577334 56.8597 0.631794C56.5421 0.748494 56.2555 0.896313 56.0154 1.05969C55.7714 1.22307 55.5738 1.39423 55.4189 1.54983C55.4034 1.56539 55.3879 1.58095 55.3724 1.6004C55.3724 1.6004 55.2911 1.66264 55.1865 1.76767C55.1826 1.77156 55.1788 1.77545 55.1749 1.77934C55.1633 1.79101 55.1517 1.80657 55.1362 1.81824C55.0626 1.89604 54.9813 1.98551 54.9077 2.09443C54.7876 2.26948 54.7179 2.45231 54.6985 2.59235C54.6753 2.73239 54.6946 2.81797 54.6985 2.81408C54.7024 2.81408 54.7063 2.79463 54.7101 2.75962C54.7218 2.71683 54.7411 2.66237 54.7721 2.62347C54.7411 2.77518 54.7218 2.94245 54.7101 3.12528C54.7024 3.24976 54.6946 3.37812 54.6714 3.51038C54.6482 3.64264 54.6133 3.7749 54.5707 3.91105C54.4816 4.17946 54.3577 4.42453 54.2415 4.64237C54.1834 4.75129 54.1253 4.85243 54.0672 4.94579C54.0091 5.03526 53.9433 5.11306 53.8852 5.18697C53.769 5.33479 53.6799 5.45538 53.6179 5.54096C53.6179 5.54485 53.6102 5.54874 53.6063 5.55652C53.5405 5.63043 53.4863 5.68489 53.4514 5.70434C53.4514 5.70434 53.4824 5.69267 53.5327 5.67322C53.5792 5.65377 53.6373 5.63043 53.6915 5.59542C53.6838 5.6032 53.6799 5.61098 53.6722 5.61876C53.6025 5.70045 53.525 5.7588 53.463 5.79381C53.4011 5.82882 53.3584 5.84438 53.3623 5.85605C53.2926 5.88717 53.219 5.91051 53.1416 5.92218C53.1416 5.92218 53.3158 5.97275 53.4824 5.94552C53.4669 5.94941 53.4514 5.95719 53.432 5.96497C53.3158 6.00776 53.1493 6.06222 52.9711 6.13613C52.7891 6.21392 52.6458 6.32674 52.5606 6.42009C52.5606 6.42009 52.5567 6.42398 52.5529 6.42787C52.5025 6.47455 52.4677 6.52123 52.4599 6.56402C52.3631 6.56402 52.2585 6.56013 52.1462 6.56402C51.9874 6.5718 51.817 6.59903 51.6427 6.63793C51.6195 6.64182 51.6001 6.6496 51.5769 6.65349C51.4568 6.66905 51.3212 6.69628 51.1624 6.73129C50.9843 6.77408 50.7868 6.82854 50.5621 6.87911C50.1167 6.98025 49.5784 7.05805 48.9742 7.12418C48.3739 7.19031 47.7116 7.25644 47.0144 7.28756C46.3173 7.32257 45.6511 7.31479 45.0469 7.27589C44.7448 7.25255 44.4582 7.22532 44.1949 7.18642C44.1561 7.18253 44.1174 7.17475 44.0787 7.17086C44.0206 7.15919 43.9509 7.14363 43.8656 7.12807C43.8075 7.12029 43.7456 7.10862 43.6797 7.10084C43.61 7.09695 43.5403 7.08917 43.4628 7.08139C43.3854 7.07361 43.3041 7.08139 43.2227 7.0775C43.1801 7.0775 43.1336 7.08139 43.091 7.08528C43.0329 7.08139 42.9748 7.0775 42.9129 7.0775C42.8974 7.0775 42.878 7.0775 42.8625 7.0775C42.8006 7.06972 42.7347 7.05805 42.6727 7.05027C42.2583 6.9997 41.8013 7.00359 41.383 7.10862C41.1545 7.15141 40.9299 7.22143 40.7091 7.31868C40.1204 7.58709 39.6905 8.06167 39.3691 8.61794C39.0089 9.23644 38.7726 9.9133 38.4705 10.559C38.3078 10.9091 38.1297 11.2631 37.8857 11.5627C37.7385 11.6405 37.5913 11.7183 37.4519 11.8038C37.1769 11.9633 36.9252 12.1423 36.7005 12.329C36.4759 12.5196 36.2822 12.718 36.1235 12.928C35.9647 13.1342 35.8446 13.3482 35.7594 13.5543C35.5851 13.9667 35.5502 14.3323 35.558 14.5774C35.5657 14.7019 35.5774 14.7952 35.589 14.8614C35.5967 14.9703 35.6316 15.0325 35.6393 15.0286C35.6432 15.0286 35.6393 15.0092 35.6393 14.9742C35.6393 14.9314 35.6393 14.8653 35.6393 14.7875C35.6509 14.663 35.6858 14.4996 35.7323 14.3207C35.8097 14.025 35.9182 13.7838 35.953 13.6866C35.9801 13.6788 35.7245 14.6708 35.7245 14.6708L35.802 14.4724C35.7865 14.5307 35.7749 14.5813 35.771 14.628C35.7555 14.7252 35.7555 14.7875 35.7594 14.7875C35.771 14.7875 35.7981 14.5502 35.9066 14.274C35.9337 14.2078 35.9569 14.0328 36.0654 14.0522C36.1118 14.06 36.108 14.1067 36.0963 14.1417C36.0499 14.3051 35.9918 14.4646 35.9143 14.6163C35.8756 14.6902 35.8291 14.7602 35.7865 14.8341C35.7633 14.8691 35.709 14.9314 35.7361 14.9742C35.7439 14.9897 36.0189 14.803 36.2474 14.4685C36.3365 14.3401 36.4101 14.204 36.4682 14.0561C36.4836 14.0211 36.4953 13.9822 36.503 13.9472C36.5069 13.9278 36.5108 13.9122 36.5185 13.8928C36.5185 13.885 36.5456 13.8383 36.5534 13.8577C36.5534 13.8616 36.5534 13.8694 36.5534 13.8733C36.5262 13.9706 36.5417 14.0795 36.5301 14.1806C36.5146 14.3207 36.4798 14.4374 36.4759 14.4801C36.441 14.5463 36.4217 14.5852 36.4294 14.5891C36.4294 14.5891 36.4372 14.5891 36.4488 14.5774V14.5852C36.4604 14.6007 36.6734 14.4412 36.8593 14.1728C36.9523 14.0406 37.0181 13.9083 37.0569 13.8111C37.0569 13.815 37.0569 13.8188 37.0569 13.8266C37.0259 13.9861 36.991 14.1145 37.0065 14.1223C37.0104 14.1223 37.0181 14.1184 37.0297 14.1028C37.0491 14.1106 37.1033 13.9744 37.2002 13.8266C37.2466 13.7527 37.297 13.6866 37.3318 13.6399C37.3318 13.6594 37.3241 13.6749 37.3202 13.6944C37.2892 13.885 37.3125 14.0445 37.3318 14.0445C37.3512 14.0445 37.3589 13.8928 37.3899 13.706C37.4093 13.5738 37.4364 13.461 37.4442 13.4065L37.5526 13.3132C37.5255 13.352 37.4751 13.461 37.448 13.5971C37.4093 13.7761 37.4364 13.9278 37.4558 13.9239C37.4635 13.9239 37.4674 13.8966 37.4751 13.85C37.4829 13.8305 37.4906 13.7994 37.5061 13.7605C37.5332 13.6905 37.5797 13.601 37.6456 13.5076C37.7269 13.391 37.7927 13.282 37.8315 13.2159L37.8779 13.2003C37.8315 13.2743 37.7811 13.3871 37.7579 13.5193C37.7346 13.6516 37.7424 13.7761 37.7617 13.8577C37.7811 13.9433 37.8082 13.99 37.816 13.99C37.8198 13.99 37.8198 13.9744 37.816 13.955C37.8353 13.9433 37.8431 13.7877 37.8818 13.601C37.8973 13.5271 37.9167 13.4571 37.9322 13.3987C37.9244 13.5193 37.9399 13.6321 37.9631 13.7099C37.9864 13.7877 38.0096 13.8305 38.0212 13.8266C38.0406 13.8188 37.9825 13.636 38.0019 13.4065C38.0174 13.177 38.1026 13.002 38.0832 12.9942L38.3195 12.8541C38.3195 12.8541 38.2885 12.8814 38.273 12.8969C38.211 12.9592 38.1413 13.0642 38.0987 13.1926C38.0561 13.3209 38.0483 13.4454 38.06 13.5349C38.0716 13.6243 38.091 13.6749 38.0987 13.671C38.1064 13.671 38.1064 13.6438 38.1064 13.6049C38.1142 13.5816 38.1219 13.5465 38.1336 13.5076C38.1568 13.426 38.1994 13.317 38.2652 13.2003C38.3156 13.107 38.3698 13.0253 38.4124 12.9592C38.3892 13.0136 38.3698 13.0798 38.3582 13.1498C38.3427 13.2587 38.3427 13.3559 38.3466 13.426C38.3504 13.496 38.3582 13.5388 38.3698 13.5388C38.3931 13.5388 38.3969 13.3676 38.424 13.1614C38.424 13.1459 38.4279 13.1303 38.4318 13.1148C38.4395 13.1965 38.4511 13.2704 38.455 13.3209C38.455 13.3521 38.4589 13.3754 38.4628 13.391V13.3987C38.4628 13.4065 38.4666 13.4104 38.4705 13.4104C38.4744 13.4104 38.4821 13.4026 38.486 13.3832C38.5402 13.3404 38.6719 13.1926 38.761 12.9786C38.8423 12.7841 38.8578 12.6052 38.8539 12.5196L38.9624 12.2395C38.9546 12.294 38.9624 12.4885 38.9275 12.7141C38.9082 12.8736 38.8733 13.0097 38.8539 13.0992C38.8384 13.1303 38.8307 13.1498 38.8384 13.1537C38.8384 13.1537 38.8384 13.1537 38.8423 13.1537C38.8346 13.1848 38.8346 13.2042 38.8423 13.2042C38.8501 13.2042 38.8733 13.1692 38.9043 13.0992C38.9585 13.037 39.036 12.9358 39.1134 12.8075C39.1754 12.7024 39.2257 12.6013 39.249 12.5196C39.249 12.5118 39.2529 12.5001 39.2567 12.4924C39.249 12.5546 39.2412 12.6285 39.2296 12.7141C39.2025 12.9086 39.1638 13.0642 39.1831 13.072C39.187 13.072 39.1948 13.0642 39.2025 13.0525C39.218 13.0447 39.2529 13.0136 39.2838 12.9592C39.3226 12.8853 39.3574 12.7841 39.3884 12.6674C39.4271 12.5274 39.4465 12.4029 39.4504 12.3212C39.4504 12.364 39.4581 12.3873 39.4659 12.3873C39.4697 12.3873 39.4775 12.3757 39.4814 12.3601C39.4891 12.3601 39.5124 12.3134 39.5433 12.2512C39.5433 12.2784 39.5433 12.3018 39.5433 12.3251C39.5395 12.3407 39.5317 12.3523 39.5278 12.3679C39.524 12.3796 39.5162 12.3873 39.5124 12.399C39.4814 12.4729 39.4581 12.5429 39.4581 12.6013C39.4581 12.6557 39.4736 12.6908 39.4814 12.6869C39.4852 12.6869 39.4891 12.6791 39.4891 12.6713L39.555 12.5896C39.555 12.5896 39.555 12.6052 39.555 12.613C39.5085 12.6985 39.4543 12.823 39.4388 12.9669C39.4388 12.9786 39.4349 12.9942 39.431 13.0097C39.4272 13.0603 39.431 13.107 39.4426 13.1381C39.4388 13.1537 39.4349 13.1614 39.4426 13.1614C39.4426 13.1614 39.4465 13.1614 39.4504 13.1537C39.4543 13.1653 39.462 13.1731 39.4659 13.1731C39.4775 13.1731 39.4891 13.1342 39.493 13.0836L39.5588 13.0136C39.5007 13.0914 39.4349 13.2276 39.462 13.426C39.462 13.426 39.4775 13.4104 39.4969 13.3832L39.5588 13.3054C39.5511 13.3482 39.5472 13.3948 39.5395 13.4415C39.5162 13.6282 39.5046 13.7916 39.5085 13.8616C39.5007 13.9083 39.493 13.955 39.4852 14.0056C39.431 14.3323 39.3458 14.7875 39.1212 15.2387C38.8965 15.6899 38.5557 16.0089 38.2923 16.1995C38.273 16.2151 38.2536 16.2268 38.2343 16.2384C38.2071 16.2345 37.9902 16.3084 37.7656 16.4757C37.6455 16.5613 37.5526 16.6624 37.5023 16.7441C37.4984 16.7519 37.4945 16.7597 37.4906 16.7675C37.4751 16.7947 37.4635 16.818 37.4558 16.8453C37.4442 16.8764 37.4442 16.8958 37.448 16.8958C37.4596 16.8958 37.4829 16.8453 37.541 16.7752C37.5487 16.7675 37.5565 16.7558 37.5642 16.748C37.6184 16.6936 37.6843 16.6469 37.7385 16.6663C37.7153 16.6858 37.7037 16.7013 37.7037 16.7052C37.7037 16.7091 37.7191 16.7052 37.7424 16.6974C37.723 16.7052 37.6998 16.7169 37.6688 16.7363C37.6494 16.7363 37.6301 16.748 37.6184 16.7597C37.5797 16.7908 37.5642 16.8219 37.5526 16.853C37.5255 16.8919 37.51 16.9425 37.51 17.0009C37.51 17.0009 37.6184 16.8725 37.7114 16.9347C37.6959 16.9503 37.6765 16.9658 37.661 16.9814C37.5836 17.0631 37.5332 17.1526 37.51 17.2226C37.4868 17.2926 37.4906 17.3393 37.4984 17.3393C37.51 17.3393 37.5216 17.3004 37.5526 17.2381C37.5797 17.1876 37.6223 17.1214 37.6804 17.0553C37.6727 17.0903 37.6649 17.1292 37.6533 17.1681C37.6533 17.1798 37.6494 17.1876 37.6456 17.1992C37.5952 17.2965 37.5332 17.4443 37.541 17.6155C37.4519 17.9578 37.3318 18.3585 37.173 18.7708C37.1149 18.9225 37.053 19.0703 36.9871 19.2104C36.9213 19.3504 36.8593 19.4866 36.8012 19.6188C36.6889 19.8833 36.6153 20.1362 36.6037 20.354C36.5882 20.5719 36.6347 20.7508 36.6928 20.8597C36.7083 20.8986 36.7276 20.9336 36.7509 20.9648C36.7741 20.9998 36.8012 21.0231 36.8283 21.0426C36.8206 21.0581 37.0259 21.1554 37.3047 21.1554C37.3744 21.1554 37.4403 21.1476 37.4945 21.1359C37.5487 21.1281 37.603 21.1204 37.6456 21.1087C37.6882 21.097 37.7191 21.0815 37.7463 21.0698V21.0542C37.7463 21.0542 37.7889 21.0659 37.8237 21.0737C37.8741 21.0815 37.9438 21.097 38.0251 21.097C38.1064 21.097 38.18 21.0776 38.2265 21.0503C38.242 21.0426 38.2536 21.0309 38.2652 21.0231C38.2962 21.0426 38.3737 21.0659 38.4705 21.0581C38.5209 21.0581 38.5673 21.0426 38.6022 21.0231C38.6099 21.0231 38.6138 21.0231 38.6216 21.0153C38.6409 21.0075 38.6642 20.9842 38.6758 20.9531C38.6835 20.9453 38.7029 20.8986 38.7106 20.8247C38.7184 20.743 38.699 20.6224 38.6332 20.5096C38.5673 20.3968 38.4705 20.3229 38.3969 20.2879C38.3233 20.2529 38.2691 20.249 38.2652 20.2568H38.2575C38.2575 20.2568 38.2304 20.2334 38.1994 20.2062C38.1645 20.1751 38.1219 20.1167 38.0987 20.0312C38.0755 19.9495 38.0755 19.8405 38.0832 19.7238C38.0948 19.6071 38.1258 19.4827 38.1684 19.3504C38.2536 19.0898 38.3659 18.8681 38.4511 18.7125C38.5054 18.6152 38.5441 18.5413 38.5673 18.4985C38.6022 18.444 38.6409 18.3896 38.6797 18.3351C38.9856 17.9072 39.3226 17.5688 39.5666 17.3159V17.3237C39.5666 17.3237 39.5627 17.3587 39.5666 17.4288C39.5666 17.4365 39.5666 17.4482 39.5666 17.456C39.5666 17.4988 39.5782 17.5493 39.5898 17.6077C39.6014 17.666 39.6169 17.7322 39.6324 17.8061C39.6983 18.0978 39.8067 18.4985 39.981 18.9186C40.1514 19.3426 40.3644 19.7005 40.5465 19.9378C40.5891 20 40.6317 20.0506 40.6704 20.0973C40.7091 20.144 40.7401 20.1829 40.7711 20.2101C40.7943 20.2334 40.8098 20.2529 40.8253 20.2646C40.8408 20.2918 40.8757 20.3229 40.9376 20.3501C40.9376 20.3579 41.0228 20.4007 41.1739 20.4163C41.3249 20.4357 41.5302 20.4318 41.7587 20.4318C41.9872 20.4279 42.1964 20.4046 42.3435 20.3735C42.421 20.3579 42.483 20.3385 42.5294 20.3229C42.5333 20.3229 42.5411 20.3229 42.5449 20.319L42.6766 20.2684C42.6766 20.2684 42.6727 20.2101 42.6418 20.1245C42.6108 20.0428 42.5604 19.9222 42.4675 19.8172C42.3745 19.7083 42.2545 19.646 42.1654 19.6227C42.0763 19.5994 42.0182 19.6071 42.0182 19.6149L41.964 19.6033C41.9369 19.5721 41.8439 19.5021 41.7316 19.3776C41.5883 19.2259 41.414 18.9886 41.2785 18.7008C41.1894 18.5141 41.1313 18.3312 41.0964 18.1679C41.0771 18.0395 41.0577 17.8644 41.0771 17.6583C41.0887 17.5493 41.1158 17.4288 41.1584 17.3082C41.2165 17.1642 41.3094 16.9736 41.4489 16.7675C41.4682 16.7363 41.4915 16.7013 41.5147 16.6702C41.5418 16.6313 41.5689 16.5924 41.5999 16.5535C41.7393 16.3746 41.9059 16.184 42.0957 15.9895C42.3629 15.7172 42.6766 15.4332 42.9748 15.1064C43.0484 15.0247 43.122 14.9431 43.1917 14.8575C43.2615 14.7758 43.3234 14.6785 43.3699 14.5852C43.4667 14.3946 43.5364 14.2078 43.6023 14.025C43.6797 13.815 43.7495 13.6166 43.823 13.4337L43.9741 13.0759C43.9741 13.0759 44.1058 13.0331 44.2684 13.0097C44.2801 13.0097 44.2917 13.0097 44.3072 13.0097C44.373 13.0097 44.466 13.0097 44.5667 13.0214C44.6635 13.037 44.7487 13.072 44.799 13.107C44.8533 13.142 44.8804 13.1731 44.8881 13.1653C44.8959 13.1614 44.8804 13.1187 44.8262 13.0681C44.799 13.0409 44.7603 13.0175 44.7138 12.9942C44.6131 12.9125 44.4853 12.8308 44.3614 12.8269C44.3808 12.8191 44.4001 12.8113 44.4234 12.8036C44.555 12.7569 44.7526 12.7258 44.9617 12.7724C44.985 12.7763 45.0082 12.7841 45.0314 12.7919C45.2328 12.8969 45.5388 13.0914 45.6472 13.3209C45.655 13.3559 45.6627 13.3754 45.6666 13.3754C45.6744 13.3754 45.6821 13.3443 45.6821 13.2976C45.6937 13.1965 45.6937 13.0097 45.5814 12.8075C45.6046 12.8269 45.624 12.8464 45.6472 12.8658C45.7634 13.0214 45.9377 13.3132 45.9067 13.6594C45.8951 13.7177 45.8835 13.7527 45.8951 13.7566C45.899 13.7566 45.9145 13.741 45.9338 13.7021C45.9997 13.6049 46.1275 13.3793 46.112 13.1148C46.1159 13.1225 46.1236 13.1303 46.1275 13.1381C46.1546 13.1926 46.174 13.2315 46.1856 13.2509C46.2011 13.2898 46.2166 13.3132 46.2243 13.3132C46.2282 13.3132 46.2321 13.3054 46.2321 13.2937C46.2514 13.2509 46.2979 13.1498 46.3018 13.0564C46.4025 13.2081 46.4722 13.3365 46.4916 13.3326C46.4916 13.3326 46.4916 13.3287 46.4916 13.3248C46.538 13.4065 46.5768 13.4843 46.5961 13.5349C46.5961 13.5349 46.6194 13.3365 46.5651 13.0953C46.6077 13.2276 46.693 13.4415 46.8285 13.5232C46.8363 13.531 46.844 13.5349 46.8479 13.5349C46.8556 13.5349 46.8518 13.5154 46.8479 13.4882C46.8479 13.4182 46.8479 13.2937 46.875 13.2353C46.8982 13.2898 46.9408 13.3559 46.9951 13.426C47.0919 13.5816 47.2623 13.7761 47.5218 13.8305C47.5412 13.8383 47.5566 13.8422 47.5566 13.8383C47.5644 13.8305 47.5218 13.7916 47.4676 13.7333C47.4443 13.6905 47.4211 13.636 47.4172 13.5738C47.4521 13.6088 47.4908 13.6438 47.5373 13.6827C47.6341 13.7761 47.7929 13.8889 48.0485 13.9628C48.0485 13.9628 47.9943 13.8966 47.9827 13.8266C48.0175 13.8539 48.0563 13.885 48.095 13.92C48.2073 14.0367 48.4048 14.1962 48.7186 14.2818C48.7186 14.2818 48.6992 14.2623 48.6682 14.2273C48.6527 14.2001 48.6062 14.1495 48.5481 14.0756C48.5288 14.0484 48.5172 14.0211 48.5133 14.0017C48.552 14.0289 48.5946 14.06 48.6527 14.0873C48.6837 14.1028 48.7224 14.1184 48.7573 14.1339C48.8309 14.1728 48.9161 14.2156 49.009 14.2584C49.1988 14.344 49.4273 14.4335 49.6907 14.5113C49.9541 14.5891 50.2484 14.6513 50.566 14.6863C50.7093 14.7019 50.8448 14.7135 50.9804 14.7174C50.9804 14.7252 51.1043 14.7447 51.298 14.733C51.36 14.733 51.4258 14.7213 51.4994 14.7058C51.7124 14.6902 51.9099 14.6591 52.0842 14.6241H52.092C52.1191 14.6163 52.1462 14.6085 52.1733 14.6046C52.3747 14.5579 52.5335 14.5035 52.6419 14.4646C52.669 14.4529 52.6962 14.4451 52.7155 14.4335L52.8743 14.3868C52.8743 14.4335 52.8782 14.4801 52.8821 14.5268C52.9131 15.087 52.9518 15.5966 52.9789 15.9739C52.9983 16.3512 53.0254 16.818 53.0331 17.3276C53.0447 17.95 53.0176 18.5102 52.9789 18.9186C52.975 18.9653 52.9711 19.012 52.9673 19.0548C52.9518 19.1559 52.9363 19.2843 52.9402 19.4243C52.9402 19.5994 52.9789 19.755 53.0215 19.8639C53.0641 19.9728 53.1067 20.0273 53.1144 20.0234C53.1144 20.0234 53.1144 20.0117 53.1144 19.9961C53.1106 19.93 53.1067 19.7705 53.1764 19.72C53.2849 19.8211 53.4011 19.9961 53.4863 20.214C53.5792 20.4357 53.6799 20.6302 53.7806 20.7547C53.8503 20.8481 53.92 20.8986 53.9588 20.9181C54.0091 20.9531 54.0905 20.9881 54.195 21.0114C54.4042 21.062 54.6985 21.0659 55.02 21.0464C55.3376 21.0309 55.6319 21.0037 55.8372 20.957C55.9418 20.9336 56.0231 20.9064 56.0773 20.8753C56.1083 20.8597 56.1277 20.8403 56.1354 20.8286H56.1509C56.1509 20.8286 56.1432 20.7469 56.0967 20.638C56.058 20.5563 55.9999 20.4474 55.9069 20.3501C56.0773 20.3968 56.4995 20.4941 56.8597 20.3774C56.8635 20.3774 56.8713 20.3774 56.879 20.3774C56.9294 20.3657 56.9681 20.3501 56.9952 20.3346C57.0146 20.3229 57.0262 20.3112 57.034 20.3112C57.0417 20.3112 57.034 20.2412 56.9914 20.1401C56.9526 20.0389 56.8829 19.8989 56.759 19.7822C56.635 19.6616 56.4762 19.6149 56.3678 19.6071C56.3484 19.6071 56.3329 19.6071 56.3136 19.6071C56.2477 19.5955 56.1819 19.5838 56.1354 19.5916C56.1083 19.5799 56.0773 19.5605 56.0425 19.541C55.9418 19.4866 55.8101 19.3932 55.7055 19.257C55.6009 19.117 55.539 18.9692 55.4964 18.8642C55.4693 18.7903 55.4499 18.7319 55.4383 18.7047C55.4383 18.6813 55.4344 18.6541 55.4305 18.623C55.4267 18.5646 55.4189 18.4907 55.4112 18.4051C55.4073 18.3196 55.3957 18.2223 55.3918 18.1173C55.3802 17.9033 55.3724 17.6466 55.3724 17.3626C55.3724 17.0787 55.384 16.7675 55.4112 16.4407C55.4383 16.1139 55.4809 15.8066 55.5235 15.5266C55.57 15.2465 55.6203 14.9975 55.6668 14.7875C55.6668 14.7719 55.6745 14.7563 55.6784 14.7408L55.9069 13.8928C55.9573 13.815 56.0037 13.7449 56.0502 13.6788C56.2826 13.496 56.8209 13.0603 56.9604 12.8425C56.9604 12.8425 56.9604 12.8425 56.9681 12.8347C57.0262 12.7686 57.0843 12.6946 57.1385 12.6207C57.185 12.5585 57.2276 12.4963 57.2663 12.434C57.4716 12.1462 57.704 11.7688 57.7311 11.5432C57.7311 11.5432 57.766 11.5977 57.766 11.6794C57.7582 11.7105 57.7543 11.7299 57.7582 11.7338C57.766 11.7338 57.8163 11.6521 57.8357 11.4965C57.8589 11.3759 57.8705 11.2087 57.8473 10.9792C57.8473 10.9792 57.9248 11.0647 57.9325 11.162C57.9325 11.162 57.9325 11.1036 57.9325 11.0181C57.9325 11.0103 57.9325 10.9908 57.9325 10.9636C57.9325 10.8663 57.9248 10.7535 57.9093 10.6641C57.8938 10.4423 57.8938 10.135 57.917 9.7966C57.9402 9.45817 57.979 9.15476 58.0138 8.93303C58.0138 8.92525 58.0138 8.92136 58.0138 8.91358C58.0138 9.04195 58.0255 9.15865 58.0448 9.24811C58.0642 9.36481 58.1184 9.42316 58.1262 9.41538C58.1262 9.41538 58.1262 9.4076 58.1262 9.39593C58.1184 9.31035 58.0874 8.92525 58.1494 8.75409C58.1649 8.83578 58.1842 8.90969 58.2075 8.96415C58.2423 9.04584 58.2772 9.08862 58.285 9.08474C58.285 9.08474 58.285 9.07307 58.285 9.05362C58.285 9.05362 58.2036 8.69963 58.2927 8.49735C58.3198 8.61016 58.3702 8.66462 58.374 8.66073C58.3856 8.65684 58.3276 8.56348 58.3237 8.4001C58.3237 8.38065 58.3237 8.35731 58.3237 8.33397L58.3585 8.11613L58.3818 8.03055C58.405 7.94886 58.436 7.86328 58.467 7.77381C58.5096 7.65322 58.5444 7.53263 58.5561 7.41593C58.5561 7.39648 58.5599 7.37314 58.5599 7.34591C58.5638 7.26033 58.5561 7.17864 58.5406 7.11251C58.5289 7.06972 58.5212 7.03082 58.5096 6.99581C58.5096 6.99581 58.5987 7.1553 58.6335 7.29923C58.6335 7.35758 58.6374 7.39259 58.649 7.39648C58.6684 7.40037 58.711 7.2331 58.6723 7.03082C58.6529 6.92968 58.618 6.84021 58.5793 6.78575C58.5522 6.74296 58.5251 6.71962 58.5096 6.71184C58.5561 6.68072 58.6529 6.58736 58.7226 6.44343C58.7458 6.39286 58.7613 6.34229 58.7729 6.29562C58.8001 6.35007 58.8698 6.47844 58.9356 6.42787C58.9434 6.42398 58.9201 6.35785 58.893 6.24505C58.8659 6.13613 58.8465 5.98053 58.8698 5.80937C58.8775 5.73157 58.8969 5.65766 58.9124 5.59153C58.924 5.56041 58.9356 5.52929 58.9511 5.49428C59.0247 5.32312 59.1254 5.11695 59.2803 4.92245C59.319 4.87577 59.3616 4.82909 59.412 4.7863C59.4623 4.74351 59.5127 4.70072 59.5669 4.66182C59.6754 4.58402 59.7954 4.51011 59.9232 4.44009C60.175 4.30005 60.4267 4.17946 60.6436 4.05498C60.7521 3.98885 60.8566 3.92661 60.9457 3.85659C60.9922 3.82158 61.0309 3.78268 61.0697 3.74767C61.089 3.72822 61.1045 3.70877 61.12 3.68932C61.1355 3.66987 61.1549 3.65042 61.1665 3.62708C61.2711 3.4637 61.3137 3.30032 61.2865 3.18752C61.2827 3.16418 61.2749 3.14084 61.2672 3.12528C61.2672 3.11361 61.2594 3.10194 61.2556 3.08638C61.2401 3.04748 61.2207 3.01636 61.1975 2.99302C61.1897 2.98524 61.1858 2.97746 61.182 2.97357C61.213 2.93856 61.2401 2.89966 61.2633 2.85687C61.3137 2.76351 61.333 2.66626 61.3369 2.57679C61.3369 2.49121 61.3369 2.41341 61.3291 2.34339C61.3291 2.30449 61.3214 2.26948 61.3214 2.23447C61.3214 2.19557 61.3214 2.13722 61.3214 2.07887C61.3175 2.00496 61.3098 1.93883 61.302 1.89993V1.88048L61.3253 1.90382Z" fill="white"/>
<path d="M16.6382 20.8792C16.1618 20.957 15.515 20.8947 15.426 20.8403C15.333 20.7858 15.2827 20.6069 15.2827 20.6069C15.2827 20.6069 15.1548 20.5174 15.1277 20.4785C14.9728 20.1634 15.1587 19.3465 15.1587 19.3465C15.1587 19.3465 14.9844 19.4671 14.9418 19.6772C14.9225 19.3543 14.9961 19.1676 14.9961 19.1676L14.814 19.257C14.814 19.257 14.9689 19.0392 14.8799 18.8603C14.7675 18.9692 14.7211 19.1442 14.7211 19.2765C14.4577 18.8292 14.7714 18.2184 14.7714 18.2184C14.7714 18.2184 14.5971 18.304 14.5003 18.5569C14.4383 18.1445 14.9922 17.5571 14.9922 17.5571L14.7598 17.6466C14.7598 17.6466 15.2323 16.9347 15.5809 16.5768C15.9333 16.219 15.8946 15.8183 15.8675 15.8689C15.7707 16.2812 15.4802 16.4913 15.4802 16.4913C15.4802 16.4913 15.7474 16.0867 15.6816 15.9C15.4724 15.9311 15.3911 16.3084 15.3911 16.3084C15.3911 16.3084 15.3717 15.8339 15.5848 15.4799C15.4027 15.7833 15.1471 15.8611 15.1471 15.8611C15.1471 15.8611 15.4337 15.6705 15.4686 14.9469C15.4686 14.8886 15.6893 13.2976 15.5112 13.2626C15.2981 13.2276 15.0619 13.5271 15.0619 13.5271C15.0619 13.5271 15.0464 13.4026 15.1006 13.3598C14.9999 13.3521 14.6165 13.6438 14.6165 13.6438C14.6165 13.6438 14.6707 13.4376 14.8101 13.3598C14.5623 13.3715 14.3299 13.5971 14.3299 13.5971C14.3299 13.5971 14.3686 13.4532 14.4228 13.4065C14.2408 13.4299 13.9929 13.7138 13.9929 13.7138C13.9929 13.7138 13.9852 13.5077 14.0975 13.3871C13.9813 13.4104 13.8651 13.5971 13.8651 13.5971C13.8651 13.5971 13.7218 12.5935 14.4732 12.3523C14.6397 12.3018 14.9108 12.2745 14.9651 12.2473C15.0154 12.2201 16.6808 11.0258 18.1138 10.8469C19.5469 10.668 20.67 10.9247 20.7707 10.9247C20.8753 10.9247 23.9466 11.0297 24.1519 11.0297C26.5532 11.0531 28.1179 7.96831 28.7182 7.82827C28.939 7.73491 29.303 7.69601 29.3418 7.69601C29.3805 7.69601 30.1435 7.59098 30.3488 7.66878C30.554 7.74658 31.2124 8.06945 31.2124 8.06945C31.2124 8.06945 31.3557 8.09668 31.4448 8.13558C31.5339 8.17448 31.6114 8.24061 31.6385 8.31841C31.6656 8.39621 31.6888 8.52458 31.7043 8.56348C31.7159 8.60238 31.8476 8.81244 31.987 8.87468C32.1304 8.93692 32.6067 9.03028 32.8275 9.08085C33.0483 9.13142 33.6834 9.29479 33.7686 9.41927C33.8577 9.53986 33.757 9.7577 33.757 9.7577C33.757 9.7577 33.6408 9.94053 33.6408 9.97943C33.6408 10.0183 33.5905 10.4385 33.4201 10.668C33.2497 10.8975 32.8391 11.1464 32.6958 11.1853C32.5525 11.2242 31.3867 11.2865 31.1582 11.337C30.9297 11.3876 30.9568 11.6132 30.9684 11.7221C30.9762 11.8311 31.0846 12.0411 31.0885 12.3873C30.9258 12.1306 30.7283 12.0878 30.7283 12.0878C30.7283 12.0878 30.7477 12.5546 30.6741 12.7724C30.5695 12.4301 30.4146 12.3445 30.403 12.3056C30.5192 12.9981 30.1977 13.2898 30.1977 13.2898C30.1977 13.2898 30.2209 12.6985 29.9731 12.6908C29.946 12.9864 30.0312 13.4221 29.9305 13.6671C29.946 13.3482 29.6245 13.1576 29.6245 13.1576C29.6245 13.1576 29.8608 13.6944 29.7175 14.0717C29.5935 13.6049 29.3573 13.5855 29.3573 13.5855C29.3573 13.5855 29.7678 14.2117 29.6826 14.7524C29.6013 14.3829 29.5161 14.3712 29.5006 14.3634C29.7329 14.9625 29.5548 15.5499 29.5548 15.5499L29.4734 15.3359C29.4734 15.3359 29.4734 15.7211 29.3611 15.9311C29.3611 15.7638 29.3573 15.7133 29.3573 15.7133C29.3573 15.7133 29.0784 16.6624 28.9041 16.7324C29.0048 16.5263 28.9622 16.1995 28.9622 16.1995C28.9622 16.1995 28.695 17.1137 28.3851 17.2809C28.4858 17.0475 28.4703 16.997 28.4277 16.9075C27.7345 17.2809 27.8158 19.5099 27.8158 19.5099C27.8158 19.5099 28.327 19.4671 28.7182 19.6305C29.1133 19.7939 29.0978 20.2762 28.8925 20.3774C28.6872 20.4746 28.4897 20.4318 28.4897 20.4318C28.4897 20.4318 28.6098 20.5485 28.5827 20.7858C28.5439 21.132 28.1489 21.1826 27.6338 21.1476C27.1186 21.1126 26.6035 21.1476 26.4447 21.0503C26.2859 20.957 26.1271 20.7197 26.1271 20.7197C26.1271 20.7197 25.887 20.7508 25.9335 21.062C25.7476 20.8325 25.7553 20.6536 25.7553 20.6536L25.6159 20.7936C25.6159 20.7936 25.4184 20.5174 25.5694 20.2412C25.3642 20.354 25.3022 20.6069 25.2751 20.6886C25.2209 20.5563 25.186 20.354 25.186 20.354L25.0466 20.5291L24.9846 20.2179C24.9846 20.2179 24.8607 20.3657 24.8568 20.5291C24.6864 20.2996 24.7716 19.4399 24.7716 19.4399C24.7716 19.4399 24.667 19.611 24.6012 19.8561C24.3959 19.6811 24.3765 19.2337 24.3765 19.2337C24.3765 19.2337 24.2913 19.296 24.2565 19.3738C24.2023 19.3037 24.2216 19.0275 24.2216 19.0275C24.2216 19.0275 24.1945 19.0937 24.0938 19.1404C24.1209 19.0081 23.9815 18.5413 23.9815 18.5413C23.9815 18.5413 23.8111 18.8097 23.8033 18.977C23.6871 18.8797 23.6562 18.7825 23.6562 18.7825C23.6562 18.7825 23.6794 19.0742 23.5709 19.1987C23.5555 18.9497 23.3463 18.4557 23.3308 18.5063C23.2689 18.5607 23.2301 18.6852 23.2262 18.7475C23.1682 18.7163 23.1178 18.6074 23.1217 18.5569C23.0442 18.5763 23.0094 18.7436 23.0365 18.8681C22.8854 18.7864 22.8467 18.3662 22.8467 18.3662C22.8467 18.3662 22.6608 18.5958 22.7073 18.8486C22.4594 18.5413 22.4245 18.055 22.4245 18.055C22.4245 18.055 22.3548 18.3157 22.2657 18.3546C22.1805 17.9617 21.8862 17.666 21.8862 17.666C21.8862 17.666 21.8203 17.8722 21.8978 18.0006C21.4601 17.8411 21.0883 17.137 21.0883 17.137C21.0883 17.137 21.2161 17.5688 21.1735 17.6738C21.1348 17.4871 20.9683 17.3276 20.9683 17.3276C20.9683 17.3276 20.8947 17.4832 20.9683 17.5882C20.67 17.491 20.5035 17.0164 20.5035 17.0164C20.5035 17.0164 20.426 17.3354 20.6236 17.5882C20.2827 17.5455 20.0194 17.0864 19.9535 16.7597C19.8838 16.4329 19.3687 15.9817 19.3687 15.9817C19.3687 15.9817 19.6592 16.4329 19.5236 16.9114C19.4772 16.3162 19.1596 16.1217 19.1596 16.1217C19.1596 16.1217 18.9814 16.4952 18.9659 16.9347C18.7761 16.7247 18.749 16.3785 18.749 16.3785C18.749 16.3785 18.7025 17.0398 18.3114 17.3937C18.3307 17.0203 18.2145 16.8375 18.079 16.9658C17.9434 17.6077 17.5987 17.5221 17.3547 18.6269C17.3547 18.6774 17.3276 19.1209 17.3973 19.2104C17.467 19.2998 17.5251 19.3621 17.5987 19.3738C17.6762 19.3854 18.0596 19.3154 18.11 19.3349C18.1603 19.3504 18.4159 19.2687 18.4353 19.7978C18.4353 19.9534 18.2107 20.0467 18.1448 20.0467C18.079 20.0467 17.3276 20.0701 17.1804 20.0623C17.0333 20.0545 16.9209 19.9845 16.8396 19.9417C16.7583 19.8989 16.7505 19.7005 16.7505 19.7005L16.6653 19.7355L16.5762 19.3387L16.4252 19.5449C16.4252 19.5449 16.3903 18.9225 16.3206 18.907C16.2509 19.0237 16.2277 19.3543 16.1812 19.5644C16.127 19.8172 16.0456 20.0428 16.1889 20.144C16.3245 20.2334 16.6072 20.0973 16.8435 20.1128C17.0759 20.1245 17.1146 20.4202 17.0914 20.568C17.0681 20.7158 17.0333 20.7936 16.6227 20.8675L16.6382 20.8792Z" fill="white"/>
<path d="M0.770401 15.3632C0.596114 14.9236 0.708432 14.4685 0.894338 14.4685C1.08412 14.4685 1.08412 14.7952 1.29713 15.1881C1.51015 15.5771 1.71155 16.0712 2.17631 16.0089C2.64108 15.9467 2.71466 15.8261 3.02838 15.8261C3.34209 15.8261 4.39556 16.0984 5.19728 15.9856C5.999 15.8728 7.07957 15.1531 7.28097 14.8653C7.48237 14.5774 7.59469 13.317 7.59469 13.317C7.59469 13.317 7.53272 12.8113 7.50561 12.4612C7.48237 12.1073 7.26548 11.7299 7.26548 11.7299C7.66827 11.7066 7.8658 11.8038 8.03234 12.1462C8.19501 12.4846 8.2957 12.7024 8.2957 12.7024C8.76822 12.6908 9.10517 12.7335 9.33755 12.823C9.62416 12.9358 9.74422 13.1187 9.75196 13.3559C10.329 13.531 10.4026 13.5816 10.4026 13.5816C10.4026 13.5816 10.4762 13.5932 10.4646 13.706C10.453 13.8188 10.4414 14.4879 9.38015 14.6007C9.20974 15.935 9.10904 16.8064 9.00834 17.3354C8.90764 17.8644 7.92777 18.304 7.92777 18.304C7.92777 18.304 7.92777 20.0195 7.92777 20.284C7.92777 20.5485 8.50485 20.8636 8.50485 20.8636C8.44288 21.1787 8.22986 21.1787 8.22986 21.1787H7.84256L7.32745 20.1712L6.76198 18.269V18.8369C6.76198 18.8369 6.45989 18.8369 5.68141 18.8369C4.90293 18.8369 3.68679 18.1328 3.68679 18.1328C3.68679 18.1328 3.32273 18.5724 3.13295 18.8525C2.94317 19.1287 2.54425 19.117 2.23053 19.2804C1.91682 19.4438 1.74253 19.6694 1.74253 19.8717C1.74253 20.0739 1.74253 20.0234 1.74253 20.2101C1.74253 20.4007 1.94393 20.5991 2.12984 20.6263C2.0911 20.8014 1.94006 20.8792 1.94006 20.8792H1.35136C1.35136 20.8792 1.20031 20.6263 1.17707 20.424C1.15383 20.2218 1.17707 19.5683 1.17707 19.2648C1.17707 18.9614 1.20031 18.9614 1.51402 18.7591C1.82774 18.5569 1.81612 18.304 1.81612 18.0667C1.81612 17.8255 1.49079 17.6777 1.54113 17.0981C1.59148 16.5185 1.71542 16.429 1.71542 16.429C1.71542 16.429 0.936941 15.8105 0.762655 15.371L0.770401 15.3632Z" fill="white"/>
</svg>
