<svg width="124" height="42" viewBox="0 0 124 42" fill="none" xmlns="http://www.w3.org/2000/svg">
<path d="M85.2651 30.4934C85.2651 30.4934 85.2966 30.4618 85.3044 30.4539L85.273 30.4776L85.2572 30.4934H85.2651Z" fill="white"/>
<path d="M106.905 39.3104C106.92 39.3578 106.928 39.4052 106.944 39.4447L106.865 39.1287C106.881 39.1919 106.897 39.2551 106.905 39.3104Z" fill="white"/>
<path d="M82.3389 16.6201C82.3389 16.6201 82.2209 16.6991 82.0715 16.8097C82.213 16.7149 82.3074 16.6438 82.3389 16.6201Z" fill="white"/>
<path d="M78.4059 35.0994C78.4059 35.0994 78.4137 35.0915 78.4216 35.0836V35.0994H78.4059Z" fill="white"/>
<path d="M115.526 0.147549H115.833C115.738 0.139649 115.644 0.139649 115.542 0.147549H115.526Z" fill="white"/>
<path d="M123.589 4.28742C123.589 4.28742 123.589 4.24792 123.589 4.22422C123.589 4.13731 123.597 4.05041 123.589 3.9714C123.589 3.9714 123.581 3.9556 123.573 3.9477V4.29532L123.589 4.28742Z" fill="white"/>
<path d="M117.115 17.7578C117.123 17.9 117.154 17.9948 117.17 18.058L117.107 17.663C117.107 17.663 117.107 17.7341 117.107 17.7578H117.115Z" fill="white"/>
<path d="M81.4186 17.3786C81.4186 17.3786 81.3792 17.4102 81.3635 17.426C81.3871 17.4102 81.4028 17.3944 81.4186 17.3786Z" fill="white"/>
<path d="M78.4059 35.0994V35.0836C78.4059 35.0836 78.398 35.0915 78.3901 35.0994H78.4059Z" fill="white"/>
<path d="M85.2651 30.4934L85.2808 30.4776L85.3123 30.4539C85.3123 30.4539 85.2808 30.4855 85.273 30.4934H85.2651Z" fill="white"/>
<path d="M106.905 39.3104C106.889 39.2551 106.873 39.1919 106.865 39.1287L106.944 39.4447C106.928 39.4052 106.92 39.3578 106.905 39.3104Z" fill="white"/>
<path d="M113.276 0.977104C113.276 0.977104 113.284 0.977104 113.292 0.969203C113.292 0.969203 113.284 0.969203 113.276 0.977104Z" fill="white"/>
<path d="M115.526 0.147549H115.542C115.636 0.139649 115.738 0.139649 115.833 0.147549H115.526Z" fill="white"/>
<path d="M117.17 18.0501C117.154 17.9948 117.123 17.8921 117.115 17.7499C117.115 17.7183 117.115 17.6867 117.115 17.6551L117.178 18.0501H117.17Z" fill="white"/>
<path d="M123.597 4.22422C123.597 4.22422 123.597 4.26372 123.597 4.28742V3.9398C123.597 3.9398 123.604 3.9635 123.612 3.9635C123.612 4.0425 123.612 4.12941 123.612 4.21632L123.597 4.22422Z" fill="white"/>
<path d="M67.299 14.0762H67.3068C67.3068 14.0762 67.3068 14.0762 67.299 14.0762Z" fill="white"/>
<path d="M123.541 2.81002L123.565 2.75472C123.565 2.75472 123.589 2.67572 123.604 2.64411C123.628 2.56511 123.644 2.494 123.659 2.415C123.691 2.26489 123.707 2.11478 123.715 1.98047C123.715 1.83826 123.691 1.70395 123.644 1.57754C123.597 1.45904 123.51 1.35633 123.416 1.30103C123.227 1.19042 123.046 1.19832 122.936 1.20622C122.826 1.21412 122.763 1.23782 122.763 1.24572C122.763 1.23782 122.684 1.22992 122.558 1.25362C122.495 1.26942 122.409 1.29312 122.322 1.34053C122.314 1.34053 122.306 1.35633 122.291 1.35633C122.204 1.35633 122.11 1.35633 122.031 1.35633C121.74 1.36423 121.166 1.41953 120.529 1.56174C120.057 1.66445 119.656 1.79876 119.349 1.81456C119.081 1.83036 118.916 1.78296 118.869 1.78296C118.751 1.71185 118.617 1.60915 118.539 1.45114C118.554 1.42743 118.562 1.38793 118.57 1.32473C118.57 1.22992 118.554 1.10351 118.484 0.985004C118.413 0.858596 118.318 0.77169 118.24 0.732188C118.161 0.684785 118.106 0.684785 118.098 0.700586C118.09 0.724287 118.153 0.779591 118.232 0.866497C118.122 0.787491 117.988 0.732188 117.854 0.661083C117.453 0.46357 116.973 0.226555 116.391 0.0843452C116.1 0.0132406 115.785 -0.0183615 115.455 0.00534004C115.125 0.0290416 114.802 0.115947 114.472 0.226555C113.827 0.46357 113.245 0.76379 112.757 1.09561C112.262 1.42743 111.86 1.77506 111.546 2.09108C111.514 2.12268 111.483 2.15428 111.451 2.19378C111.451 2.19378 111.286 2.32019 111.074 2.53351C111.066 2.54141 111.058 2.54931 111.05 2.55721C111.027 2.58091 111.003 2.61251 110.971 2.63621C110.822 2.79422 110.657 2.97593 110.507 3.19715C110.264 3.55267 110.122 3.924 110.083 4.20842C110.035 4.49283 110.075 4.66665 110.083 4.65875C110.09 4.65875 110.098 4.61924 110.106 4.54814C110.13 4.46123 110.169 4.35063 110.232 4.27162C110.169 4.57974 110.13 4.91946 110.106 5.29079C110.09 5.5436 110.075 5.80432 110.028 6.07294C109.98 6.34156 109.91 6.61017 109.823 6.88669C109.642 7.43183 109.39 7.92956 109.154 8.37199C109.036 8.5932 108.918 8.79862 108.8 8.98823C108.682 9.16994 108.549 9.32795 108.431 9.47806C108.195 9.77828 108.014 10.0232 107.888 10.197C107.888 10.2049 107.872 10.2128 107.864 10.2286C107.731 10.3787 107.621 10.4893 107.55 10.5288C107.55 10.5288 107.613 10.5051 107.715 10.4656C107.809 10.4261 107.927 10.3787 108.037 10.3076C108.022 10.3234 108.014 10.3392 107.998 10.355C107.856 10.5209 107.699 10.6394 107.573 10.7105C107.447 10.7816 107.361 10.8132 107.369 10.837C107.227 10.9002 107.078 10.9476 106.92 10.9713C106.92 10.9713 107.274 11.074 107.613 11.0187C107.581 11.0266 107.55 11.0424 107.51 11.0582C107.274 11.1451 106.936 11.2557 106.574 11.4058C106.205 11.5638 105.914 11.7929 105.741 11.9825C105.741 11.9825 105.733 11.9904 105.725 11.9983C105.623 12.0931 105.552 12.1879 105.536 12.2748C105.339 12.2748 105.127 12.2669 104.899 12.2748C104.576 12.2906 104.23 12.346 103.876 12.425C103.829 12.4329 103.79 12.4487 103.743 12.4566C103.499 12.4882 103.223 12.5435 102.901 12.6146C102.539 12.7015 102.138 12.8121 101.682 12.9148C100.777 13.1202 99.6836 13.2782 98.4565 13.4125C97.2373 13.5468 95.8922 13.6811 94.4763 13.7443C93.0604 13.8154 91.7074 13.7996 90.4803 13.7206C89.8668 13.6732 89.2847 13.6179 88.7498 13.5389C88.6711 13.531 88.5924 13.5152 88.5138 13.5073C88.3958 13.4836 88.2542 13.452 88.0812 13.4204C87.9632 13.4046 87.8373 13.3809 87.7036 13.3651C87.562 13.3572 87.4204 13.3414 87.2631 13.3256C87.1058 13.3098 86.9406 13.3256 86.7754 13.3177C86.6889 13.3177 86.5945 13.3256 86.5079 13.3335C86.3899 13.3256 86.2719 13.3177 86.1461 13.3177C86.1146 13.3177 86.0753 13.3177 86.0438 13.3177C85.918 13.3019 85.7843 13.2782 85.6584 13.2624C84.8167 13.1597 83.8885 13.1676 83.039 13.3809C82.5749 13.4678 82.1187 13.61 81.6703 13.8075C80.4746 14.3527 79.6015 15.3165 78.9486 16.4463C78.2171 17.7025 77.7372 19.0772 77.1237 20.3887C76.7933 21.0997 76.4315 21.8187 75.9359 22.427C75.637 22.585 75.3381 22.743 75.0549 22.9168C74.4964 23.2408 73.9851 23.6042 73.5289 23.9834C73.0727 24.3705 72.6794 24.7735 72.3568 25.2001C72.0343 25.6188 71.7905 26.0533 71.6174 26.4721C71.2635 27.3095 71.1927 28.0522 71.2084 28.5499C71.2241 28.8027 71.2477 28.9923 71.2713 29.1266C71.2871 29.3479 71.3579 29.4743 71.3736 29.4664C71.3815 29.4664 71.3736 29.4269 71.3736 29.3558C71.3736 29.2689 71.3736 29.1346 71.3736 28.9765C71.3972 28.7237 71.468 28.3919 71.5624 28.0285C71.7197 27.428 71.9399 26.9382 72.0107 26.7407C72.0658 26.7249 71.5466 28.7395 71.5466 28.7395L71.704 28.3366C71.6725 28.4551 71.6489 28.5578 71.641 28.6526C71.6096 28.8501 71.6096 28.9765 71.6174 28.9765C71.641 28.9765 71.6961 28.4946 71.9163 27.9337C71.9714 27.7994 72.0186 27.4438 72.2389 27.4833C72.3333 27.4991 72.3254 27.594 72.3018 27.6651C72.2074 27.9969 72.0894 28.3208 71.9321 28.6289C71.8534 28.779 71.759 28.9212 71.6725 29.0713C71.6253 29.1425 71.5152 29.2689 71.5702 29.3558C71.586 29.3874 72.1445 29.0081 72.6086 28.3287C72.7895 28.068 72.9389 27.7915 73.0569 27.4912C73.0884 27.4201 73.112 27.3411 73.1277 27.27C73.1356 27.2305 73.1435 27.1989 73.1592 27.1594C73.1592 27.1436 73.2142 27.0488 73.23 27.0883C73.23 27.0962 73.23 27.112 73.23 27.1199C73.1749 27.3174 73.2064 27.5386 73.1828 27.7441C73.1513 28.0285 73.0805 28.2655 73.0727 28.3524C73.0019 28.4867 72.9625 28.5657 72.9783 28.5736C72.9783 28.5736 72.994 28.5736 73.0176 28.5499V28.5657C73.0412 28.5973 73.4738 28.2734 73.8514 27.7283C74.0402 27.4596 74.1739 27.191 74.2526 26.9935C74.2526 27.0014 74.2526 27.0093 74.2526 27.0251C74.1896 27.349 74.1189 27.6098 74.1503 27.6256C74.1582 27.6256 74.1739 27.6176 74.1975 27.586C74.2368 27.6018 74.347 27.3253 74.5436 27.0251C74.638 26.875 74.7403 26.7407 74.8111 26.6459C74.8111 26.6854 74.7953 26.717 74.7875 26.7565C74.7245 27.1436 74.7717 27.4675 74.8111 27.4675C74.8504 27.4675 74.8661 27.1594 74.9291 26.7802C74.9684 26.5116 75.0235 26.2825 75.0392 26.1719L75.2594 25.9822C75.2044 26.0612 75.1021 26.2825 75.047 26.559C74.9684 26.9224 75.0235 27.2305 75.0628 27.2226C75.0785 27.2226 75.0864 27.1673 75.1021 27.0725C75.1178 27.033 75.1336 26.9698 75.165 26.8908C75.2201 26.7486 75.3145 26.5669 75.4482 26.3773C75.6134 26.1403 75.7471 25.919 75.8258 25.7847L75.9202 25.7531C75.8258 25.9032 75.7235 26.1324 75.6763 26.401C75.6291 26.6696 75.6449 26.9224 75.6842 27.0883C75.7235 27.2621 75.7786 27.3569 75.7943 27.3569C75.8022 27.3569 75.8022 27.3253 75.7943 27.2858C75.8337 27.2621 75.8494 26.9461 75.928 26.5669C75.9595 26.4168 75.9988 26.2746 76.0303 26.1561C76.0146 26.401 76.046 26.6301 76.0932 26.7881C76.1404 26.9461 76.1876 27.033 76.2112 27.0251C76.2506 27.0093 76.1326 26.638 76.1719 26.1719C76.2034 25.7057 76.3764 25.3502 76.3371 25.3344L76.8169 25.05C76.8169 25.05 76.754 25.1053 76.7225 25.1369C76.5967 25.2633 76.4551 25.4766 76.3685 25.7373C76.282 25.998 76.2663 26.2509 76.2899 26.4326C76.3135 26.6143 76.3528 26.717 76.3685 26.7091C76.3843 26.7091 76.3843 26.6538 76.3843 26.5748C76.4 26.5274 76.4157 26.4563 76.4393 26.3773C76.4865 26.2114 76.5731 25.9901 76.7068 25.7531C76.809 25.5635 76.9192 25.3976 77.0057 25.2633C76.9585 25.3739 76.9192 25.5082 76.8956 25.6504C76.8641 25.8716 76.8641 26.0692 76.872 26.2114C76.8798 26.3536 76.8956 26.4405 76.9192 26.4405C76.9664 26.4405 76.9742 26.0928 77.0293 25.6741C77.0293 25.6425 77.0372 25.6109 77.045 25.5793C77.0608 25.7452 77.0844 25.8953 77.0922 25.998C77.0922 26.0612 77.1001 26.1087 77.108 26.1403V26.1561C77.108 26.1719 77.1158 26.1798 77.1237 26.1798C77.1316 26.1798 77.1473 26.164 77.1552 26.1245C77.2653 26.0375 77.5327 25.7373 77.7137 25.3028C77.8788 24.9078 77.9103 24.5443 77.9024 24.3705L78.1227 23.8017C78.107 23.9123 78.1227 24.3073 78.0519 24.7656C78.0126 25.0895 77.9418 25.366 77.9024 25.5477C77.871 25.6109 77.8552 25.6504 77.871 25.6583C77.871 25.6583 77.871 25.6583 77.8788 25.6583C77.8631 25.7215 77.8631 25.761 77.8788 25.761C77.8946 25.761 77.9418 25.6899 78.0047 25.5477C78.1148 25.4213 78.2721 25.2159 78.4295 24.9552C78.5553 24.7419 78.6576 24.5364 78.7048 24.3705C78.7048 24.3547 78.7126 24.331 78.7205 24.3152C78.7048 24.4416 78.689 24.5918 78.6655 24.7656C78.6104 25.1606 78.5317 25.4766 78.5711 25.4924C78.5789 25.4924 78.5947 25.4766 78.6104 25.4529C78.6418 25.4371 78.7126 25.3739 78.7756 25.2633C78.8542 25.1132 78.925 24.9078 78.988 24.6708C79.0666 24.3863 79.106 24.1335 79.1138 23.9676C79.1138 24.0545 79.1295 24.1019 79.1453 24.1019C79.1531 24.1019 79.1689 24.0782 79.1767 24.0466C79.1925 24.0466 79.2397 23.9518 79.3026 23.8254C79.3026 23.8807 79.3026 23.9281 79.3026 23.9755C79.2947 24.0071 79.279 24.0308 79.2711 24.0624C79.2633 24.0861 79.2475 24.1019 79.2397 24.1256C79.1767 24.2757 79.1295 24.4179 79.1295 24.5364C79.1295 24.6471 79.161 24.7182 79.1767 24.7103C79.1846 24.7103 79.1925 24.6945 79.1925 24.6787L79.3262 24.5128C79.3262 24.5128 79.3262 24.5444 79.3262 24.5602C79.2318 24.734 79.1217 24.9868 79.0902 25.2791C79.0902 25.3028 79.0824 25.3344 79.0745 25.366C79.0666 25.4687 79.0745 25.5635 79.0981 25.6267C79.0902 25.6583 79.0824 25.6741 79.0981 25.6741C79.0981 25.6741 79.106 25.6741 79.1138 25.6583C79.1217 25.682 79.1374 25.6978 79.1453 25.6978C79.1689 25.6978 79.1925 25.6188 79.2003 25.5161L79.3341 25.3739C79.2161 25.5319 79.0824 25.8084 79.1374 26.2114C79.1374 26.2114 79.1689 26.1798 79.2082 26.1245L79.3341 25.9664C79.3183 26.0533 79.3105 26.1482 79.2947 26.243C79.2475 26.6222 79.2239 26.954 79.2318 27.0962C79.2161 27.191 79.2003 27.2858 79.1846 27.3885C79.0745 28.0522 78.9014 28.9765 78.4452 29.893C77.989 30.8095 77.2967 31.4573 76.7619 31.8444C76.7225 31.876 76.6832 31.8997 76.6439 31.9234C76.5888 31.9155 76.1483 32.0656 75.6921 32.4054C75.4482 32.5792 75.2594 32.7846 75.1572 32.9505C75.1493 32.9663 75.1414 32.9821 75.1336 32.9979C75.1021 33.0532 75.0785 33.1006 75.0628 33.1559C75.0392 33.2191 75.0392 33.2586 75.047 33.2586C75.0706 33.2586 75.1178 33.1559 75.2358 33.0137C75.2516 32.9979 75.2673 32.9742 75.283 32.9584C75.3932 32.8478 75.5269 32.753 75.637 32.7925C75.5898 32.832 75.5662 32.8636 75.5662 32.8715C75.5662 32.8794 75.5977 32.8715 75.6449 32.8557C75.6055 32.8715 75.5583 32.8952 75.4954 32.9347C75.4561 32.9347 75.4168 32.9584 75.3932 32.9821C75.3145 33.0453 75.283 33.1085 75.2594 33.1717C75.2044 33.2507 75.1729 33.3534 75.1729 33.4719C75.1729 33.4719 75.3932 33.2112 75.5819 33.3376C75.5505 33.3692 75.5111 33.4008 75.4797 33.4324C75.3224 33.5983 75.2201 33.7801 75.1729 33.9223C75.1257 34.0645 75.1336 34.1593 75.1493 34.1593C75.1729 34.1593 75.1965 34.0803 75.2594 33.9539C75.3145 33.8512 75.401 33.7169 75.519 33.5825C75.5033 33.6536 75.4875 33.7327 75.4639 33.8117C75.4639 33.8354 75.4561 33.8512 75.4482 33.8749C75.346 34.0724 75.2201 34.3726 75.2358 34.7202C75.0549 35.4155 74.8111 36.2292 74.4886 37.0667C74.3706 37.3748 74.2447 37.675 74.111 37.9594C73.9773 38.2438 73.8514 38.5204 73.7334 38.789C73.5053 39.3262 73.3558 39.8398 73.3322 40.2822C73.3008 40.7246 73.3952 41.088 73.5132 41.3092C73.5446 41.3883 73.584 41.4594 73.6312 41.5226C73.6784 41.5937 73.7334 41.6411 73.7885 41.6806C73.7727 41.7122 74.1896 41.9097 74.756 41.9097C74.8976 41.9097 75.0313 41.8939 75.1414 41.8702C75.2516 41.8544 75.3617 41.8386 75.4482 41.8149C75.5347 41.7912 75.5977 41.7596 75.6527 41.7359V41.7043C75.6527 41.7043 75.7393 41.728 75.8101 41.7438C75.9123 41.7596 76.0539 41.7912 76.2191 41.7912C76.3843 41.7912 76.5337 41.7517 76.6281 41.6964C76.6596 41.6806 76.6832 41.6569 76.7068 41.6411C76.7697 41.6806 76.927 41.728 77.1237 41.7122C77.2259 41.7122 77.3203 41.6806 77.3911 41.6411C77.4069 41.6411 77.4147 41.6411 77.4305 41.6253C77.4698 41.6095 77.517 41.5621 77.5406 41.4989C77.5563 41.4831 77.5957 41.3883 77.6114 41.2381C77.6271 41.0722 77.5878 40.8273 77.4541 40.5982C77.3204 40.3691 77.1237 40.219 76.9742 40.1479C76.8248 40.0768 76.7147 40.0689 76.7068 40.0847H76.6911C76.6911 40.0847 76.636 40.0373 76.5731 39.982C76.5023 39.9188 76.4157 39.8003 76.3685 39.6264C76.3214 39.4605 76.3214 39.2393 76.3371 39.0023C76.3607 38.7653 76.4236 38.5125 76.5101 38.2439C76.6832 37.7145 76.9113 37.2642 77.0844 36.9482C77.1945 36.7506 77.2731 36.6005 77.3203 36.5136C77.3911 36.403 77.4698 36.2924 77.5485 36.1818C78.1699 35.3128 78.8542 34.6254 79.3498 34.1119V34.1277C79.3498 34.1277 79.3419 34.1988 79.3498 34.341C79.3498 34.3568 79.3498 34.3805 79.3498 34.3963C79.3498 34.4832 79.3734 34.5859 79.397 34.7044C79.4206 34.8229 79.4521 34.9572 79.4835 35.1073C79.6172 35.6999 79.8375 36.5136 80.1915 37.3669C80.5376 38.228 80.9702 38.9549 81.3399 39.4368C81.4264 39.5632 81.513 39.6659 81.5916 39.7607C81.6703 39.8556 81.7332 39.9346 81.7962 39.9899C81.8433 40.0373 81.8748 40.0768 81.9063 40.1005C81.9377 40.1558 82.0085 40.219 82.1344 40.2743C82.1344 40.2901 82.3074 40.377 82.6142 40.4086C82.921 40.4481 83.3379 40.4402 83.802 40.4402C84.2661 40.4323 84.6909 40.3849 84.9898 40.3217C85.1471 40.2901 85.273 40.2506 85.3673 40.219C85.3752 40.219 85.3909 40.219 85.3988 40.2111L85.6663 40.1084C85.6663 40.1084 85.6584 39.9899 85.5955 39.8161C85.5325 39.6501 85.4303 39.4052 85.2415 39.1919C85.0527 38.9707 84.8089 38.8443 84.6279 38.7969C84.447 38.7495 84.329 38.7653 84.329 38.7811L84.2189 38.7574C84.1638 38.6942 83.9751 38.552 83.7469 38.2992C83.4559 37.991 83.1019 37.5091 82.8266 36.9245C82.6457 36.5452 82.5277 36.1739 82.4569 35.8421C82.4176 35.5814 82.3782 35.2259 82.4176 34.8071C82.4412 34.5859 82.4962 34.341 82.5828 34.0961C82.7008 33.8038 82.8895 33.4166 83.1727 32.9979C83.212 32.9347 83.2592 32.8636 83.3064 32.8004C83.3615 32.7214 83.4166 32.6424 83.4795 32.5634C83.7627 32.2 84.1009 31.8128 84.4864 31.4178C85.0291 30.8648 85.6663 30.288 86.2719 29.6244C86.4214 29.4585 86.5709 29.2926 86.7125 29.1187C86.854 28.9528 86.9799 28.7553 87.0743 28.5657C87.2709 28.1786 87.4125 27.7994 87.5463 27.428C87.7036 27.0014 87.8452 26.5985 87.9946 26.2272L88.3014 25.5003C88.3014 25.5003 88.5688 25.4134 88.8992 25.366C88.9228 25.366 88.9464 25.366 88.9779 25.366C89.1116 25.366 89.3004 25.366 89.5049 25.3897C89.7016 25.4213 89.8746 25.4924 89.9769 25.5635C90.087 25.6346 90.1421 25.6978 90.1578 25.682C90.1735 25.6741 90.1421 25.5872 90.0319 25.4845C89.9769 25.4292 89.8982 25.3818 89.8038 25.3344C89.5993 25.1685 89.3397 25.0026 89.088 24.9947C89.1273 24.9789 89.1667 24.9631 89.2139 24.9473C89.4813 24.8525 89.8825 24.7893 90.3073 24.8841C90.3545 24.892 90.4016 24.9078 90.4488 24.9236C90.8579 25.1369 91.4793 25.5319 91.6996 25.998C91.7153 26.0691 91.731 26.1087 91.7389 26.1087C91.7546 26.1087 91.7703 26.0454 91.7703 25.9506C91.7939 25.7452 91.7939 25.366 91.5658 24.9552C91.613 24.9947 91.6524 25.0342 91.6996 25.0737C91.9355 25.3897 92.2895 25.9822 92.2266 26.6854C92.203 26.8039 92.1794 26.875 92.203 26.8829C92.2108 26.8829 92.2423 26.8513 92.2816 26.7723C92.4154 26.5748 92.6749 26.1166 92.6435 25.5793C92.6514 25.5951 92.6671 25.6109 92.6749 25.6267C92.73 25.7373 92.7693 25.8163 92.7929 25.8558C92.8244 25.9348 92.8559 25.9822 92.8716 25.9822C92.8795 25.9822 92.8873 25.9664 92.8873 25.9427C92.9267 25.8558 93.0211 25.6504 93.0289 25.4608C93.2334 25.7689 93.375 26.0296 93.4144 26.0217C93.4144 26.0217 93.4144 26.0138 93.4144 26.0059C93.5088 26.1719 93.5874 26.3299 93.6267 26.4326C93.6267 26.4326 93.6739 26.0296 93.5638 25.5398C93.6503 25.8084 93.8234 26.243 94.0987 26.4089C94.1144 26.4247 94.1302 26.4326 94.138 26.4326C94.1538 26.4326 94.1459 26.3931 94.138 26.3378C94.138 26.1956 94.138 25.9427 94.1931 25.8242C94.2403 25.9348 94.3268 26.0692 94.4369 26.2114C94.6336 26.5274 94.9797 26.9224 95.5067 27.033C95.5461 27.0488 95.5775 27.0567 95.5775 27.0488C95.5933 27.033 95.5067 26.954 95.3966 26.8355C95.3494 26.7486 95.3022 26.638 95.2944 26.5116C95.3652 26.5827 95.4438 26.6538 95.5382 26.7328C95.7349 26.9224 96.0574 27.1515 96.5765 27.3016C96.5765 27.3016 96.4664 27.1673 96.4428 27.0251C96.5136 27.0804 96.5923 27.1436 96.6709 27.2147C96.899 27.4517 97.3002 27.7757 97.9374 27.9495C97.9374 27.9495 97.898 27.91 97.8351 27.8389C97.8036 27.7836 97.7092 27.6809 97.5913 27.5307C97.5519 27.4754 97.5283 27.4201 97.5205 27.3806C97.5991 27.4359 97.6856 27.4991 97.8036 27.5544C97.8666 27.5861 97.9452 27.6177 98.016 27.6493C98.1655 27.7283 98.3385 27.8152 98.5273 27.9021C98.9128 28.0759 99.3768 28.2576 99.9117 28.4156C100.447 28.5736 101.044 28.7 101.689 28.7711C101.981 28.8027 102.256 28.8264 102.531 28.8343C102.531 28.8501 102.783 28.8896 103.176 28.8659C103.302 28.8659 103.436 28.8422 103.585 28.8106C104.018 28.779 104.419 28.7158 104.773 28.6447H104.789C104.844 28.6289 104.899 28.6131 104.954 28.6052C105.363 28.5104 105.685 28.3998 105.906 28.3208C105.961 28.2971 106.016 28.2813 106.055 28.2576L106.378 28.1628C106.378 28.2576 106.386 28.3524 106.393 28.4472C106.456 29.5849 106.535 30.6198 106.59 31.3862C106.629 32.1525 106.684 33.1006 106.7 34.1356C106.724 35.3997 106.669 36.5373 106.59 37.3669C106.582 37.4617 106.574 37.5565 106.566 37.6434C106.535 37.8488 106.504 38.1095 106.511 38.394C106.511 38.7495 106.59 39.0655 106.677 39.2867C106.763 39.5079 106.85 39.6185 106.865 39.6106C106.865 39.6106 106.865 39.5869 106.865 39.5553C106.857 39.421 106.85 39.0971 106.991 38.9944C107.211 39.1998 107.447 39.5553 107.621 39.9978C107.809 40.4481 108.014 40.8431 108.218 41.0959C108.36 41.2855 108.502 41.3883 108.58 41.4278C108.682 41.4989 108.848 41.57 109.06 41.6174C109.485 41.7201 110.083 41.728 110.735 41.6885C111.38 41.6569 111.978 41.6016 112.395 41.5068C112.608 41.4594 112.773 41.4041 112.883 41.3409C112.946 41.3093 112.985 41.2697 113.001 41.246H113.032C113.032 41.246 113.017 41.0801 112.922 40.8589C112.844 40.693 112.726 40.4718 112.537 40.2743C112.883 40.3691 113.74 40.5666 114.472 40.3296C114.48 40.3296 114.495 40.3296 114.511 40.3296C114.613 40.3059 114.692 40.2743 114.747 40.2427C114.787 40.219 114.81 40.1953 114.826 40.1953C114.842 40.1953 114.826 40.0531 114.739 39.8477C114.661 39.6422 114.519 39.3578 114.267 39.1208C114.016 38.8759 113.693 38.7811 113.473 38.7653C113.434 38.7653 113.402 38.7653 113.363 38.7653C113.229 38.7416 113.095 38.7179 113.001 38.7337C112.946 38.71 112.883 38.6705 112.812 38.631C112.608 38.5204 112.34 38.3308 112.128 38.0542C111.915 37.7698 111.79 37.4696 111.703 37.2563C111.648 37.1062 111.609 36.9877 111.585 36.9324C111.585 36.885 111.577 36.8297 111.569 36.7665C111.561 36.6479 111.546 36.4978 111.53 36.324C111.522 36.1502 111.498 35.9527 111.491 35.7394C111.467 35.3049 111.451 34.7834 111.451 34.2067C111.451 33.6299 111.475 32.9979 111.53 32.3343C111.585 31.6706 111.672 31.0465 111.758 30.4776C111.852 29.9088 111.955 29.4032 112.049 28.9765C112.049 28.9449 112.065 28.9133 112.073 28.8817L112.537 27.1594C112.639 27.0014 112.733 26.8592 112.828 26.7249C113.3 26.3536 114.393 25.4687 114.676 25.0263C114.676 25.0263 114.676 25.0263 114.692 25.0105C114.81 24.8762 114.928 24.7261 115.038 24.576C115.133 24.4495 115.219 24.3231 115.298 24.1967C115.715 23.6121 116.187 22.8457 116.242 22.3875C116.242 22.3875 116.313 22.4981 116.313 22.664C116.297 22.7272 116.289 22.7667 116.297 22.7746C116.313 22.7746 116.415 22.6087 116.454 22.2927C116.501 22.0478 116.525 21.7081 116.478 21.2419C116.478 21.2419 116.635 21.4157 116.651 21.6133C116.651 21.6133 116.651 21.4948 116.651 21.3209C116.651 21.3051 116.651 21.2656 116.651 21.2103C116.651 21.0128 116.635 20.7837 116.604 20.602C116.572 20.1517 116.572 19.5275 116.619 18.8402C116.667 18.1528 116.745 17.5366 116.816 17.0863C116.816 17.0705 116.816 17.0626 116.816 17.0468C116.816 17.3075 116.84 17.5445 116.879 17.7262C116.918 17.9632 117.028 18.0817 117.044 18.0659C117.044 18.0659 117.044 18.0501 117.044 18.0264C117.028 17.8526 116.965 17.0705 117.091 16.7228C117.123 16.8887 117.162 17.0389 117.209 17.1495C117.28 17.3154 117.351 17.4023 117.367 17.3944C117.367 17.3944 117.367 17.3707 117.367 17.3312C117.367 17.3312 117.201 16.6122 117.382 16.2014C117.437 16.4305 117.54 16.5411 117.548 16.5332C117.571 16.5253 117.453 16.3357 117.445 16.0039C117.445 15.9644 117.445 15.917 117.445 15.8696L117.516 15.4272L117.563 15.2533C117.61 15.0874 117.673 14.9136 117.736 14.7319C117.823 14.487 117.894 14.2421 117.917 14.0051C117.917 13.9656 117.925 13.9182 117.925 13.8628C117.933 13.689 117.917 13.5231 117.886 13.3888C117.862 13.3019 117.846 13.2229 117.823 13.1518C117.823 13.1518 118.004 13.4757 118.075 13.768C118.075 13.8866 118.082 13.9577 118.106 13.9656C118.145 13.9735 118.232 13.6337 118.153 13.2229C118.114 13.0175 118.043 12.8358 117.964 12.7252C117.909 12.6383 117.854 12.5909 117.823 12.5751C117.917 12.5119 118.114 12.3222 118.255 12.0299C118.303 11.9272 118.334 11.8245 118.358 11.7297C118.413 11.8403 118.554 12.101 118.688 11.9983C118.704 11.9904 118.657 11.8561 118.602 11.627C118.546 11.4058 118.507 11.0898 118.554 10.7421C118.57 10.5841 118.609 10.434 118.641 10.2997C118.664 10.2365 118.688 10.1733 118.72 10.1022C118.869 9.75458 119.074 9.33585 119.388 8.94083C119.467 8.84602 119.553 8.75121 119.656 8.66431C119.758 8.5774 119.86 8.4905 119.97 8.41149C120.191 8.25348 120.434 8.10337 120.694 7.96116C121.205 7.67674 121.717 7.43183 122.157 7.17901C122.377 7.0447 122.59 6.91829 122.771 6.77608C122.865 6.70498 122.944 6.62598 123.022 6.55487C123.062 6.51537 123.093 6.47586 123.125 6.43636C123.156 6.39686 123.195 6.35736 123.219 6.30995C123.431 5.97813 123.518 5.64631 123.463 5.4172C123.455 5.36979 123.439 5.32239 123.423 5.29079C123.423 5.26709 123.408 5.24338 123.4 5.21178C123.368 5.13278 123.329 5.06957 123.282 5.02217C123.266 5.00637 123.258 4.99057 123.25 4.98267C123.313 4.91156 123.368 4.83256 123.416 4.74565C123.518 4.55604 123.557 4.35853 123.565 4.17681C123.565 4.003 123.565 3.84499 123.549 3.70278C123.549 3.62378 123.534 3.55267 123.534 3.48157C123.534 3.40256 123.534 3.28406 123.534 3.16555C123.526 3.01544 123.51 2.88113 123.494 2.80212V2.76262L123.541 2.81002Z" fill="white"/>
<path d="M32.7826 41.3488C31.815 41.5068 30.5014 41.3804 30.3205 41.2697C30.1317 41.1591 30.0294 40.7957 30.0294 40.7957C30.0294 40.7957 29.7699 40.614 29.7148 40.535C29.4001 39.8951 29.7777 38.236 29.7777 38.236C29.7777 38.236 29.4237 38.4809 29.3372 38.9075C29.2979 38.2518 29.4473 37.8725 29.4473 37.8725L29.0776 38.0542C29.0776 38.0542 29.3923 37.6118 29.2114 37.2484C28.9832 37.4696 28.8889 37.8251 28.8889 38.0937C28.354 37.1852 28.9911 35.9448 28.9911 35.9448C28.9911 35.9448 28.6371 36.1186 28.4405 36.6321C28.3146 35.7947 29.4395 34.6017 29.4395 34.6017L28.9675 34.7834C28.9675 34.7834 29.9272 33.3376 30.6351 32.6108C31.3509 31.8839 31.2723 31.0702 31.2172 31.1729C31.0206 32.0103 30.4306 32.437 30.4306 32.437C30.4306 32.437 30.9734 31.6153 30.8396 31.2361C30.4149 31.2993 30.2497 32.0656 30.2497 32.0656C30.2497 32.0656 30.2104 31.1018 30.643 30.3828C30.2733 30.9991 29.7541 31.1571 29.7541 31.1571C29.7541 31.1571 30.3362 30.77 30.407 29.3005C30.407 29.182 30.8554 25.9506 30.4935 25.8795C30.0609 25.8084 29.5811 26.4168 29.5811 26.4168C29.5811 26.4168 29.5496 26.164 29.6597 26.0771C29.4552 26.0612 28.6765 26.6538 28.6765 26.6538C28.6765 26.6538 28.7866 26.2351 29.0698 26.0771C28.5663 26.1008 28.0944 26.559 28.0944 26.559C28.0944 26.559 28.173 26.2667 28.2832 26.1719C27.9135 26.2193 27.41 26.796 27.41 26.796C27.41 26.796 27.3943 26.3773 27.6224 26.1324C27.3864 26.1798 27.1504 26.559 27.1504 26.559C27.1504 26.559 26.8594 24.5206 28.3854 24.0308C28.7237 23.9281 29.2743 23.8728 29.3844 23.8175C29.4867 23.7622 32.8691 21.3367 35.7795 20.9733C38.69 20.6099 40.9712 21.1313 41.1757 21.1313C41.3881 21.1313 47.6259 21.3446 48.0428 21.3446C52.9197 21.392 56.0976 15.1269 57.3169 14.8425C57.7653 14.6529 58.5047 14.5739 58.5833 14.5739C58.662 14.5739 60.2116 14.3606 60.6285 14.5186C61.0454 14.6766 62.3826 15.3323 62.3826 15.3323C62.3826 15.3323 62.6737 15.3877 62.8546 15.4667C63.0355 15.5457 63.1929 15.68 63.2479 15.838C63.303 15.996 63.3502 16.2567 63.3816 16.3357C63.4052 16.4147 63.6727 16.8413 63.9559 16.9678C64.2469 17.0942 65.2144 17.2838 65.6628 17.3865C66.1112 17.4892 67.4012 17.821 67.5743 18.0738C67.7552 18.3187 67.5507 18.7612 67.5507 18.7612C67.5507 18.7612 67.3147 19.1325 67.3147 19.2115C67.3147 19.2905 67.2124 20.1438 66.8663 20.6099C66.5202 21.076 65.6864 21.5817 65.3954 21.6607C65.1043 21.7397 62.7366 21.8661 62.2725 21.9688C61.8084 22.0715 61.8635 22.5297 61.8871 22.7509C61.9028 22.9721 62.1231 23.3988 62.1309 24.1019C61.8006 23.5805 61.3994 23.4936 61.3994 23.4936C61.3994 23.4936 61.4387 24.4416 61.2893 24.8841C61.0769 24.1888 60.7622 24.015 60.7386 23.936C60.9746 25.3423 60.3217 25.9348 60.3217 25.9348C60.3217 25.9348 60.3689 24.734 59.8655 24.7182C59.8104 25.3186 59.9835 26.2035 59.779 26.7012C59.8104 26.0534 59.1576 25.6662 59.1576 25.6662C59.1576 25.6662 59.6374 26.7565 59.3463 27.5228C59.0946 26.5748 58.6148 26.5353 58.6148 26.5353C58.6148 26.5353 59.4486 27.8073 59.2755 28.9054C59.1104 28.1549 58.9373 28.1312 58.9058 28.1154C59.3778 29.3321 59.016 30.525 59.016 30.525L58.8508 30.0905C58.8508 30.0905 58.8508 30.8727 58.6227 31.2993C58.6227 30.9596 58.6148 30.8569 58.6148 30.8569C58.6148 30.8569 58.0484 32.7846 57.6945 32.9268C57.899 32.5081 57.8125 31.8444 57.8125 31.8444C57.8125 31.8444 57.2697 33.7011 56.6404 34.0408C56.8449 33.5667 56.8135 33.464 56.7269 33.2823C55.3189 34.0408 55.4841 38.5678 55.4841 38.5678C55.4841 38.5678 56.5224 38.4809 57.3169 38.8127C58.1192 39.1445 58.0878 40.1242 57.6709 40.3296C57.254 40.5271 56.8528 40.4402 56.8528 40.4402C56.8528 40.4402 57.0966 40.6772 57.0416 41.1591C56.9629 41.8623 56.1606 41.965 55.1144 41.8939C54.0682 41.8228 53.022 41.8939 52.6995 41.6964C52.377 41.5068 52.0545 41.0248 52.0545 41.0248C52.0545 41.0248 51.5668 41.088 51.6612 41.7201C51.2836 41.2539 51.2993 40.8905 51.2993 40.8905L51.0162 41.1749C51.0162 41.1749 50.615 40.614 50.9218 40.0531C50.5049 40.2822 50.379 40.7957 50.3239 40.9616C50.2138 40.693 50.143 40.2822 50.143 40.2822L49.8598 40.6377L49.734 40.0057C49.734 40.0057 49.4823 40.3059 49.4744 40.6377C49.1283 40.1716 49.3013 38.4256 49.3013 38.4256C49.3013 38.4256 49.089 38.7732 48.9552 39.2709C48.5383 38.9154 48.499 38.0068 48.499 38.0068C48.499 38.0068 48.326 38.1332 48.2552 38.2913C48.145 38.149 48.1844 37.5881 48.1844 37.5881C48.1844 37.5881 48.1293 37.7224 47.9248 37.8172C47.9798 37.5486 47.6967 36.6005 47.6967 36.6005C47.6967 36.6005 47.3506 37.1457 47.3348 37.4854C47.0988 37.2879 47.0359 37.0904 47.0359 37.0904C47.0359 37.0904 47.0831 37.6829 46.8629 37.9357C46.8314 37.4301 46.4066 36.4267 46.3752 36.5294C46.2493 36.64 46.1706 36.8929 46.1628 37.0193C46.0448 36.9561 45.9425 36.7349 45.9504 36.6321C45.7931 36.6716 45.7223 37.0114 45.7773 37.2642C45.4706 37.0983 45.3919 36.245 45.3919 36.245C45.3919 36.245 45.0143 36.7111 45.1087 37.2247C44.6053 36.6005 44.5345 35.613 44.5345 35.613C44.5345 35.613 44.3929 36.1423 44.212 36.2213C44.0389 35.4234 43.4411 34.8229 43.4411 34.8229C43.4411 34.8229 43.3074 35.2417 43.4647 35.5024C42.5758 35.1784 41.8207 33.7485 41.8207 33.7485C41.8207 33.7485 42.0803 34.6254 41.9938 34.8387C41.9151 34.4595 41.5768 34.1356 41.5768 34.1356C41.5768 34.1356 41.4274 34.4516 41.5768 34.6649C40.9712 34.4674 40.6329 33.5035 40.6329 33.5035C40.6329 33.5035 40.4756 34.1514 40.8768 34.6649C40.1846 34.578 39.6497 33.6457 39.5159 32.9821C39.3743 32.3185 38.3282 31.402 38.3282 31.402C38.3282 31.402 38.9181 32.3185 38.6428 33.2902C38.5484 32.0814 37.9034 31.6864 37.9034 31.6864C37.9034 31.6864 37.5415 32.4449 37.5101 33.3376C37.1246 32.911 37.0696 32.2079 37.0696 32.2079C37.0696 32.2079 36.9752 33.5509 36.1807 34.2699C36.22 33.5114 35.9841 33.1401 35.7087 33.4008C35.4334 34.7044 34.7334 34.5306 34.2378 36.7744C34.2378 36.8771 34.1827 37.7777 34.3243 37.9594C34.4659 38.1411 34.5839 38.2676 34.7334 38.2913C34.8907 38.315 35.6694 38.1727 35.7717 38.2122C35.8739 38.2438 36.3931 38.0779 36.4324 39.1524C36.4324 39.4684 35.9762 39.658 35.8425 39.658C35.7087 39.658 34.1827 39.7054 33.8838 39.6896C33.5849 39.6738 33.3568 39.5316 33.1916 39.4447C33.0264 39.3578 33.0107 38.9549 33.0107 38.9549L32.8376 39.026L32.6567 38.2201L32.3499 38.6389C32.3499 38.6389 32.2791 37.3748 32.1375 37.3432C31.996 37.5802 31.9488 38.2518 31.8544 38.6784C31.7442 39.1919 31.5791 39.6501 31.8701 39.8556C32.1454 40.0373 32.7196 39.7607 33.1995 39.7923C33.6714 39.8161 33.7501 40.4165 33.7029 40.7167C33.6557 41.0169 33.5849 41.1749 32.7511 41.3251L32.7826 41.3488Z" fill="white"/>
<path d="M0.55521 30.1458C0.201236 29.2531 0.429353 28.3287 0.806925 28.3287C1.19236 28.3287 1.19236 28.9923 1.625 29.7903C2.05763 30.5803 2.46667 31.5837 3.4106 31.4573C4.35453 31.3309 4.50398 31.086 5.14114 31.086C5.77829 31.086 7.91787 31.639 9.54615 31.4099C11.1744 31.1808 13.3691 29.7192 13.7781 29.1346C14.1871 28.5499 14.4153 25.9901 14.4153 25.9901C14.4153 25.9901 14.2894 24.9631 14.2343 24.252C14.1871 23.5331 13.7466 22.7667 13.7466 22.7667C14.5647 22.7193 14.9659 22.9168 15.3041 23.6121C15.6345 24.2994 15.839 24.7419 15.839 24.7419C16.7987 24.7182 17.483 24.8051 17.955 24.9868C18.5371 25.2159 18.7809 25.5872 18.7967 26.0692C19.9687 26.4247 20.1182 26.5274 20.1182 26.5274C20.1182 26.5274 20.2676 26.5511 20.244 26.7802C20.2204 27.0093 20.1968 28.3682 18.0415 28.5973C17.6954 31.3072 17.4909 33.0769 17.2864 34.1514C17.0819 35.2258 15.0917 36.1186 15.0917 36.1186C15.0917 36.1186 15.0917 39.6027 15.0917 40.14C15.0917 40.6772 16.2638 41.3172 16.2638 41.3172C16.1379 41.9571 15.7053 41.9571 15.7053 41.9571H14.9187L13.8725 39.9109L12.724 36.0475V37.201C12.724 37.201 12.1105 37.201 10.5294 37.201C8.94833 37.201 6.47837 35.771 6.47837 35.771C6.47837 35.771 5.73896 36.6637 5.35352 37.2326C4.96808 37.7935 4.15788 37.7698 3.52072 38.1016C2.88357 38.4335 2.5296 38.8917 2.5296 39.3025C2.5296 39.7133 2.5296 39.6106 2.5296 39.9899C2.5296 40.377 2.93863 40.7799 3.31621 40.8352C3.23755 41.1907 2.93077 41.3488 2.93077 41.3488H1.73512C1.73512 41.3488 1.42835 40.8352 1.38115 40.4244C1.33395 40.0136 1.38115 38.6863 1.38115 38.07C1.38115 37.4538 1.42835 37.4538 2.0655 37.043C2.70265 36.6321 2.67905 36.1186 2.67905 35.6367C2.67905 35.1469 2.0183 34.8466 2.12056 33.6694C2.22282 32.4923 2.47454 32.3106 2.47454 32.3106C2.47454 32.3106 0.893452 31.0544 0.539478 30.1616L0.55521 30.1458Z" fill="white"/>
</svg>
