<svg width="42" height="33" viewBox="0 0 42 33" fill="none" xmlns="http://www.w3.org/2000/svg">
<path d="M40.7482 20.3191C39.0743 18.8675 38.7336 16.9778 39.2224 14.9652C39.4743 13.9318 39.4594 12.8 40.3285 11.8945C40.926 11.2745 40.3038 10.5019 39.8792 9.91139C37.6472 6.79153 34.4721 5.4678 30.7686 5.73845C27.5639 5.96973 24.3987 6.69803 21.2038 7.12123C15.5153 7.88397 13.0315 6.00418 10.7255 2.13633C11.402 1.87552 12.0834 1.61471 13.0019 1.26041C12.5377 1.05373 12.3303 0.906099 12.0982 0.86181C10.7255 0.581318 9.35273 0.256537 7.96517 0.0793833C6.50847 -0.107612 4.96783 -0.023956 3.85185 0.989755C2.29146 2.4119 1.00759 4.10962 0.202703 6.10752C0.0644405 6.44214 -0.00469087 6.82597 0.000247081 7.1852C0.0249369 8.52861 1.18042 9.29628 2.47416 8.86816C4.24689 8.28749 4.89376 8.58766 5.64927 10.2952C6.49366 12.1996 7.37755 14.0843 8.23182 15.9789C9.03176 17.7455 10.2169 19.2021 11.7131 20.4323C11.9353 20.6144 12.1822 20.8851 12.2217 21.1459C12.597 23.8721 13.1796 26.5884 12.7895 29.3589C12.7105 29.9248 12.5525 30.4759 12.4093 31.0369C12.3155 31.0615 12.2612 31.0763 12.2612 31.0763C12.2612 31.0763 11.9452 32.9216 11.9155 32.9709C11.8859 33.0201 14.8981 32.9807 14.9919 32.9709C14.9919 32.9709 15.2536 31.3912 15.3622 30.7958C15.3721 30.7466 15.382 30.7023 15.3869 30.6531C15.7276 28.0844 16.2017 25.5255 16.7449 22.9912C17.0164 21.7216 17.9497 21.2886 19.2731 21.5051C23.0161 22.1202 26.6899 21.948 30.2008 20.3831C30.9168 20.0633 31.46 20.1518 32.1019 20.4914C33.0204 20.9786 33.9339 21.5297 34.9215 21.8053C36.3782 22.2088 37.1732 23.3406 38.1163 24.3149C38.3237 24.5265 38.4274 24.9448 38.4027 25.2499C38.2546 27.0411 38.4274 28.7881 38.8373 30.5251C38.5459 30.599 38.3188 30.8253 38.2595 31.1255C38.1262 31.8341 37.9188 32.9413 37.899 32.9758C37.8694 33.025 40.8816 32.9856 40.9754 32.9758C40.9754 32.9758 41.1087 32.1638 41.2272 31.4847C41.2964 31.3273 41.3408 31.1649 41.3556 31.0222C41.6124 28.4338 41.7902 25.8404 41.9877 23.2471C42.0815 22.0562 41.6371 21.0967 40.7433 20.3241L40.7482 20.3191Z" fill="#ECEFDF"/>
</svg>
